<svg xmlns="http://www.w3.org/2000/svg" width="30.07" height="36" viewBox="0 0 30.07 36"><path d="M3.707,15.8l2.656,2.532,8.4,7.712,3.6-3.437a1.206,1.206,0,0,0-.069-1.477l-3.306-2.853L15,18.268l-3.556-3.4a1.182,1.182,0,0,1,.031-1.618L21.06,4.137,16.719,0,3.713,12.357a2.357,2.357,0,0,0,0,3.443ZM32.291,20.2l-2.655-2.537L21.243,9.955l-3.617,3.437a1.16,1.16,0,0,0,.067,1.477L21,17.706h-.009l3.553,3.4a1.155,1.155,0,0,1-.044,1.6l-9.587,9.112L19.282,36l13-12.357a2.354,2.354,0,0,0,0-3.442l0,0Z" transform="translate(-2.966)" fill="#f5f5f5"/></svg>