<svg xmlns="http://www.w3.org/2000/svg" width="401" height="289.055" viewBox="0 0 401 289.055"><g transform="translate(0 0.281)"><line x2="64.557" transform="translate(0 288.274)" fill="none" stroke="#3f3d56" stroke-miterlimit="10" stroke-width="1"/><rect width="286.62" height="194.061" rx="19.398" transform="translate(94.503 49.683)" fill="#f2f2f2"/><rect width="286.62" height="194.061" rx="19.398" transform="translate(85.753 37.433)" fill="none" stroke="#3f3d56" stroke-miterlimit="10" stroke-width="1"/><line x2="286.62" transform="translate(85.753 56.038)" fill="none" stroke="#3f3d56" stroke-miterlimit="10" stroke-width="1"/><rect width="78.169" height="12.056" rx="6.028" transform="translate(257.063 99.657)" fill="#0d47a1" opacity="0.3"/><rect width="108.114" height="9.723" rx="4.861" transform="translate(242.09 133.102)" fill="#0d47a1" opacity="0.3"/><rect width="108.114" height="9.723" rx="4.861" transform="translate(242.09 159.547)" fill="#0d47a1" opacity="0.3"/><rect width="108.114" height="9.723" rx="4.861" transform="translate(242.09 185.993)" fill="#0d47a1" opacity="0.3"/><rect width="78.169" height="12.056" rx="6.028" transform="translate(260.952 95.768)" fill="none" stroke="#3f3d56" stroke-miterlimit="10" stroke-width="1"/><rect width="108.114" height="9.723" rx="4.861" transform="translate(245.98 129.213)" fill="none" stroke="#3f3d56" stroke-miterlimit="10" stroke-width="1"/><rect width="108.114" height="9.723" rx="4.861" transform="translate(245.98 155.658)" fill="none" stroke="#3f3d56" stroke-miterlimit="10" stroke-width="1"/><rect width="108.114" height="9.723" rx="4.861" transform="translate(245.98 182.104)" fill="none" stroke="#3f3d56" stroke-miterlimit="10" stroke-width="1"/><circle cx="5.834" cy="5.834" r="5.834" transform="translate(101.697 43.266)" fill="#0d47a1" opacity="0.3"/><circle cx="5.834" cy="5.834" r="5.834" transform="translate(118.031 43.266)" fill="#0d47a1" opacity="0.3"/><circle cx="5.834" cy="5.834" r="5.834" transform="translate(134.365 43.266)" fill="#0d47a1" opacity="0.3"/><circle cx="5.834" cy="5.834" r="5.834" transform="translate(104.031 40.933)" fill="none" stroke="#3f3d56" stroke-miterlimit="10" stroke-width="1"/><circle cx="5.834" cy="5.834" r="5.834" transform="translate(120.365 40.933)" fill="none" stroke="#3f3d56" stroke-miterlimit="10" stroke-width="1"/><circle cx="5.834" cy="5.834" r="5.834" transform="translate(136.698 40.933)" fill="none" stroke="#3f3d56" stroke-miterlimit="10" stroke-width="1"/><path d="M514.423,592.665a57.988,57.988,0,0,1-.907-14.918s-4.938-21.7-8.824-23.72h0c-.06.077-1.945,2.549-2.184,10.2a31.454,31.454,0,0,1-2.994,12.871s.89,9.687.381,15.567Z" transform="translate(-338.113 -369.338)" fill="#0d47a1"/><path d="M474.869,298.379H385.245A9.245,9.245,0,0,0,376,307.624v119.57a9.245,9.245,0,0,0,9.245,9.245h31.445c-1.05-4.355-2.356-11.158-1.033-15.888v0c.062-.221.127-.438.2-.65a24.694,24.694,0,0,0,.891-9.471,19.683,19.683,0,0,0,0-8.257c-.971-4.533-1.651-8.986-1.651-8.986a58.068,58.068,0,0,1-.068-9.662c.01-.081.022-.157.034-.235l-.258-.059s1.376-6.233,1.862-10.2c.115-.936.266-2.124.429-3.389a8.149,8.149,0,0,1-1.319-.335c-4.371-1.538-5.748-15.462-5.748-15.462v-4.412s-1.457-6.759,3.643-9.755a59.326,59.326,0,0,1,7.01-3.728c.037-.027.074-.051.112-.081a4.3,4.3,0,0,0,1.279-1.647q.01-.167,0-.331c-.083-1.582-1.184-3.02-2.229-4.275l-2.673-3.211a3.139,3.139,0,0,1-.688-1.114,2.567,2.567,0,0,1-.073-.7q0-.131,0-.262.022-1.2.065-2.394c.025-.7.2-1.576.883-1.72.355-.075.825.055,1.013-.255a.609.609,0,0,0,.045-.412c0,.01,0,.021-.006.031l-.007-.039a8.727,8.727,0,0,1-.253-1.706,2.272,2.272,0,0,1,.11-.766c.4-1.157,1.757-1.632,2.96-1.85s2.554-.406,3.309-1.368a10.5,10.5,0,0,1,.657-.923,2.578,2.578,0,0,1,1.231-.621,6.8,6.8,0,0,1,4.475.4,3.943,3.943,0,0,0,1.8.583c.663-.042,1.23-.509,1.884-.622a2.681,2.681,0,0,1,2.59,1.547,3.831,3.831,0,0,1,.479,1.954,2.688,2.688,0,0,1-.686,1.844c-.455.483-1.134.814-1.323,1.45-.077.259-.059.538-.127.8-.008.033-.022.063-.033.095l.038.048a8.257,8.257,0,0,1-4.018,12.841c0,.082-.006.164-.006.246a3.567,3.567,0,0,0,1.1,2.747l7.213,2.958s4.342-.526,5.909,5.954a11.211,11.211,0,0,1,.268,3.289,9.812,9.812,0,0,0,1.189,4.923c1.781,3.562,1.376,11.738-2.267,12.547-3.45.767-4.793.445-4.925.408l-.008.143c.057,1.534.6,14.766,2.585,16.367.548.443.443.742-.006.943h0s0,.085.012.238c.06.968.366,4.653,1.693,6.75,1.538,2.429,1.377,16.434,1.377,16.434l1.052,8.257s-.647,5.1,0,5.99c.368.5.813,8.324,1.13,15h27.04a9.245,9.245,0,0,0,9.245-9.245V307.624A9.245,9.245,0,0,0,474.869,298.379Z" transform="translate(-262.636 -213.112)" fill="#0d47a1"/><rect width="108.114" height="138.06" rx="23.772" transform="translate(104.031 74.767)" fill="none" stroke="#3f3d56" stroke-miterlimit="10" stroke-width="1"/><path d="M178.1,400.05s-3.626-1.072-4.4.095,1.06,9.624,1.06,9.624l7.99.486-2.788-7.042Z" transform="translate(-138.892 -274.968)" fill="#2f2e41"/><path d="M103.858,579.347s7.27,15.961,1.671,15.46-7.772-15.46-7.772-15.46Z" transform="translate(-92.602 -384.811)" fill="#a0616a"/><path d="M234.219,572.75s-3.189,17.247,2.122,15.4,3.8-16.882,3.8-16.882Z" transform="translate(-175.413 -379.877)" fill="#a0616a"/><path d="M156.66,385.87s-.084,8.022,3.008,8.44-1.755,4.68-1.755,4.68l-5.515,1.086-7.939-.585-3.51-4.513s6.184-2.925,3.51-12.034Z" transform="translate(-118.996 -264.79)" fill="#a0616a"/><path d="M156.66,385.87s-.084,8.022,3.008,8.44-1.755,4.68-1.755,4.68l-5.515,1.086-7.939-.585-3.51-4.513s6.184-2.925,3.51-12.034Z" transform="translate(-118.996 -264.79)" opacity="0.1"/><path d="M161.5,564.927s3.928,8.44.836,34.931c0,0,.919,9.36.167,11.115s-6.936,25.572-6.936,25.572-7.939,1.755-9.025-3.51c0,0,1.086-7.521,1-8.691s1.755-13.956,1.755-13.956l-3.761-24.736L142.7,607.964s0,6.435-.919,7.855,0,30,0,30,2.591,4.345-1.337,4.429-7.437-.084-7.772-2.841-.5-5.516-1.337-7.187-1.922-20.808-1.671-27.494-5.515-41.032-3.677-44.625S161.5,564.927,161.5,564.927Z" transform="translate(-109.628 -375.99)" fill="#2f2e41"/><circle cx="10.028" cy="10.028" r="10.028" transform="translate(23.374 104.033)" fill="#a0616a"/><path d="M136.46,409.853s6.1,4.513,14.959.919c0,0,2.925-1.421,2.674-3.593s6.1,17.466,6.1,17.466l6.435,34.179-.334,13.956s-2.841-1.421-11.7,1.755-23.315-3.593-23.315-3.593l.5-35.85.5-20.892,1.337-4.6S134.288,408.348,136.46,409.853Z" transform="translate(-113.087 -279.496)" fill="#f2f2f2"/><path d="M182.063,399.882s1.476-.24,2.9,2.017,4.763,3.677,4.763,3.677,8.106.5,9.276,4.847,4.095,10.279,5.515,21.226,4.262,28.413,4.68,29.834-.585,5.766.585,7.1-8.273,1.337-8.273,1.337-.836-6.853-1.421-6.853-.418,4.6.167,7.939-4.262,0-4.262,0-3.761-15.293-7.354-29.081-5.683-21.393-5.014-24.485,2.507-11.95,1.17-12.786S182.063,399.882,182.063,399.882Z" transform="translate(-144.121 -275.135)" fill="#2f2e41"/><path d="M113.481,399.874a91.031,91.031,0,0,0-7.7,5.116c-5.515,3.928-9.276,6.936-9.276,6.936S94.334,413.6,93,423.542s-4.346,35.683-3.176,38.942,1.588,5.181,1.17,7.1,8.775,1.838,8.942,1.421-.251-8.022.167-8.19,2.674,4.513,3.092,8.44,5.265,7.02,6.351,7.02,6.685-22.647,6.769-38.107-1.838-28.5-3.259-30.335S113.481,399.874,113.481,399.874Z" transform="translate(-87.59 -275.135)" fill="#2f2e41"/><path d="M177.185,736.271a2.356,2.356,0,0,1,3.008-1.253,4.061,4.061,0,0,0,3.928-1.5s1.254-.167.418,1.421-1.5,2.674-1.5,2.674,5.014,11.449,1.755,14.206a6.988,6.988,0,0,1-7.02,1.086s-3.677-2.591-3.51-9.443a15.267,15.267,0,0,0-2.173-5.683c-2.006-3.51-3.51-8.858-1.086-9.861a13.131,13.131,0,0,1,3.047-1.04s-1.134,5.187,1.8,7Z" transform="translate(-136.597 -474.965)" fill="#3f3d56"/><path d="M145.072,777.3s-2.006-3.76,1.337-4.178,6.936-.669,6.769,1.086-.585,4.429-.585,4.429l.585,1.922s.167,4.763.752,5.348,3.761,5.6-3.008,5.6-8.775-.752-8.19-2.34.752-9.443.752-9.443Z" transform="translate(-120.027 -503.042)" fill="#3f3d56"/><path d="M140.642,339.9s4.68,1.254,7.1,1.755,2.173-.919,2.173-.919,3.176.418,3.008.084,1.337-2.089-.418-4.095-1.254-3.51-1.254-3.51h-1.5l-.418-.585h-2.34s-1.755-.669-6.351,0-10.864.836-11.365,3.593-3.092,6.184-2.173,7.772,6.184,8.106,6.685,10.864,2.843,3.37,2.758,1.643-2.424-7.744-.418-7.995S141.561,343.156,140.642,339.9Z" transform="translate(-110.416 -233.858)" fill="#2f2e41"/><path d="M1006.223,86.584a8.938,8.938,0,0,0-7.7,5.387c-1.927,4.657.554,10.127,4.277,13.522s8.507,5.337,12.852,7.888c5.837,3.427,11.082,8.184,14,14.29s3.231,13.67-.2,19.5c-3.187,5.414-8.981,8.655-14.507,11.644" transform="translate(-642.648 -83.684)" fill="none" stroke="#3f3d56" stroke-miterlimit="10" stroke-width="1"/><ellipse cx="6.5" cy="3.5" rx="6.5" ry="3.5" transform="translate(362 -0.281)" fill="#0d47a1"/><ellipse cx="7" cy="3.5" rx="7" ry="3.5" transform="translate(367 21.719)" fill="#0d47a1"/><ellipse cx="6.5" cy="3" rx="6.5" ry="3" transform="translate(355 25.719)" fill="#0d47a1"/><ellipse cx="7" cy="3" rx="7" ry="3" transform="translate(374 43.719)" fill="#0d47a1"/><ellipse cx="6.5" cy="3" rx="6.5" ry="3" transform="translate(388 43.719)" fill="#0d47a1"/></g></svg>