<svg xmlns="http://www.w3.org/2000/svg" xmlns:xlink="http://www.w3.org/1999/xlink" width="394.819" height="344.78" viewBox="0 0 394.819 344.78"><defs><linearGradient id="a" x1="0.5" y1="1" x2="0.5" gradientUnits="objectBoundingBox"><stop offset="0" stop-color="gray" stop-opacity="0.251"/><stop offset="0.54" stop-color="gray" stop-opacity="0.122"/><stop offset="1" stop-color="gray" stop-opacity="0.102"/></linearGradient></defs><g transform="translate(0.004)"><rect width="22.781" height="11.829" transform="translate(334.66 123.981)" fill="#fff" opacity="0.2"/><rect width="22.781" height="11.829" transform="translate(336.412 138.438)" fill="#fff" opacity="0.2"/><rect width="22.781" height="11.829" transform="translate(317.574 38.114)" fill="#fff" opacity="0.2"/><rect width="22.781" height="11.829" transform="translate(333.784 51.695)" fill="#fff" opacity="0.2"/><rect width="22.781" height="11.829" transform="translate(289.974 38.99)" fill="#fff" opacity="0.2"/><rect width="22.781" height="11.829" transform="translate(363.136 65.276)" fill="#fff" opacity="0.2"/><rect width="22.781" height="11.829" transform="translate(335.536 66.152)" fill="#fff" opacity="0.2"/><rect width="22.781" height="11.829" transform="translate(306.184 52.571)" fill="#fff" opacity="0.2"/><rect width="22.781" height="11.829" transform="translate(361.822 156.4)" fill="#fff" opacity="0.2"/><rect width="22.781" height="11.829" transform="translate(334.222 157.276)" fill="#fff" opacity="0.2"/><path d="M236.872,332.5s32.108,32.108,13.984,79.733,31.065,126.89,31.065,126.89-.526-.079-1.5-.25c-65.942-11.64-98.707-87.058-62.021-143.068C232.014,374.956,243.2,350.523,236.872,332.5Z" transform="translate(-179.474 -211.586)" fill="#66a6ff"/><path d="M270.636,332.5s18.124,39.358,0,71.462S267.53,526.19,315.689,539.123" transform="translate(-213.237 -211.586)" fill="none" stroke="#535461" stroke-miterlimit="10" stroke-width="2"/><path d="M149.63,628.405s36.638-5.835,39.976,27,70.454,37.387,70.454,37.387-.438.3-1.257.837c-55.415,36.362-108.385,23.171-100.4-25.129C161.371,650.542,161.126,632.506,149.63,628.405Z" transform="translate(-149.42 -377.631)" fill="#66a6ff"/><path d="M149.63,628.405s36.638-5.835,39.976,27,70.454,37.387,70.454,37.387-.438.3-1.257.837c-55.415,36.362-108.385,23.171-100.4-25.129C161.371,650.542,161.126,632.506,149.63,628.405Z" transform="translate(-149.42 -377.631)" fill="#fff" opacity="0.2"/><path d="M149.63,628.92s28.437,6.243,26.1,32.1,42.232,56.869,84.329,32.288" transform="translate(-149.42 -378.146)" fill="none" stroke="#535461" stroke-miterlimit="10" stroke-width="2"/><rect width="22.781" height="11.829" transform="translate(0.394 124.419)" fill="#fff" opacity="0.2"/><rect width="22.781" height="11.829" transform="translate(16.603 138)" fill="#fff" opacity="0.2"/><rect width="22.781" height="11.829" transform="translate(139.708)" fill="#fff" opacity="0.2"/><rect width="22.781" height="11.829" transform="translate(319.327 218.171)" fill="#fff" opacity="0.2"/><rect width="22.781" height="11.829" transform="translate(18.356 152.457)" fill="#fff" opacity="0.2"/><rect width="22.781" height="11.829" transform="translate(155.918 13.581)" fill="#fff" opacity="0.2"/><rect width="22.781" height="11.829" transform="translate(72.68 93.752)" fill="#fff" opacity="0.2"/><rect width="22.781" height="11.829" transform="translate(88.889 107.333)" fill="#fff" opacity="0.2"/><rect width="22.781" height="11.829" transform="translate(132.26 99.886)" fill="#fff" opacity="0.2"/><rect width="22.781" height="11.829" transform="translate(90.641 121.79)" fill="#fff" opacity="0.2"/><rect width="22.781" height="11.829" transform="translate(349.993 218.171)" fill="#fff" opacity="0.2"/><path d="M578.1,254.253a180.6,180.6,0,0,1-2.707-24.844h0a33.3,33.3,0,0,0-23.421-30.395c-2.392-.736-5.025-1.424-7.934-2.042-25.5-5.415-33.243-.688-34.123-.066a32.688,32.688,0,0,1-1.941-4.21c-.044-.149-.083-.3-.127-.438a32.642,32.642,0,0,0,8.722-19.666c4.254-4.311,6.738-9.515,6.738-15.119a20.753,20.753,0,0,0-5.06-13.252v-7.614A33.107,33.107,0,0,0,485.139,103.5h-2.686a33.107,33.107,0,0,0-33.107,33.107v8.206a20.541,20.541,0,0,0-4.578,12.652c0,5.485,2.383,10.584,6.475,14.843a32.647,32.647,0,0,0,9.086,20.3c.18,1.244.364,2.58.543,3.991l-45.606,9.634s-17.585.723-28.914,24.1c-9.581,19.8-28.647,70.66-34.294,85.8h0c-1.021,2.742-1.6,4.315-1.6,4.315s.188-.188.543-.513l-.543,1.476s.276-.28.8-.74c-.8,6.335-.911,17.213,7.386,18.566,6.957,1.135,24.884,1.6,38.425,1.792h.938c8.977.118,15.806.118,15.806.118v-.118h145.64v-1.494a10.036,10.036,0,0,0-.8-3.943l.2-.245a8,8,0,0,1,1.511,3.5,3.52,3.52,0,0,1-.07.368l.088-.223a3.754,3.754,0,0,1-.088,1.187s18.685-48.142,18.483-76.89A48.7,48.7,0,0,0,578.1,254.253ZM461.631,203.105a33.408,33.408,0,0,1-.464-4.153v-.039C461.329,200.266,461.486,201.668,461.631,203.105ZM405.02,306.513v11.474l-7.185,1.538Z" transform="translate(-262.267 -82.91)" fill="url(#a)"/><path d="M461.247,57.57h0a33.107,33.107,0,0,1,33.107,33.107V104.8H428.14V90.677A33.107,33.107,0,0,1,461.247,57.57Z" transform="translate(-240.456 -32.349)" fill="#e14b5a"/><ellipse cx="37.737" cy="25.931" rx="37.737" ry="25.931" transform="translate(183.285 51.152)" fill="#e14b5a"/><path d="M596.836,279.395s7.886,41.212,0,52.326,24.1,15.513,24.1,15.513l33.1-12.039,4.631-29.637s-20.152-11.347-15.977-34.268Z" transform="translate(-400.005 -177.192)" fill="#f7c4a7"/><path d="M780.48,591.151s2.085,9.029-9.261,10.65a64.16,64.16,0,0,1-20.187-.241l-2.5-22.68h26.4Z" transform="translate(-485.945 -350.028)" fill="#f7c4a7"/><path d="M362.706,563.855s-5.012,20.367,6.335,22.207,53.009,1.853,53.009,1.853v-24.1l-18.864,4.03L385.478,550.87Z" transform="translate(-268.529 -334.289)" fill="#f7c4a7"/><path d="M467.243,317.609l-44.34,9.375s-16.9.7-27.784,23.153-34.5,86.594-34.5,86.594,20.152-20.376,43.761,1.389l15.745-28.476-3.474,45.15h122v-21.3s25.466,13.66,23.618,21.3c0,0,21.8-56.155,17.086-81.674a173.559,173.559,0,0,1-2.6-23.876h0a31.981,31.981,0,0,0-22.509-29.208c-2.3-.705-4.819-1.367-7.623-1.958-26.163-5.555-32.857,0-32.857,0s-5.069,16.49-4.977,23.964c.114,9.607-13.66,15.977-13.66,15.977s-20.376-4.863-21.3-8.8S465.614,322.24,467.243,317.609Z" transform="translate(-267.976 -202.092)" opacity="0.1"/><path d="M467.238,315.5l-44.34,9.375s-16.9.7-27.784,23.153-34.5,86.6-34.5,86.6,20.152-20.376,43.761,1.389l15.745-28.476-3.474,45.137h122v-21.3s25.466,13.66,23.618,21.3c0,0,21.8-56.155,17.086-81.674a173.587,173.587,0,0,1-2.6-23.876h0a31.981,31.981,0,0,0-22.509-29.208c-2.3-.705-4.819-1.367-7.623-1.958-26.163-5.555-32.857,0-32.857,0s-5.069,16.49-4.977,23.964c.114,9.607-13.66,15.977-13.66,15.977s-20.376-4.863-21.3-8.8S465.608,320.13,467.238,315.5Z" transform="translate(-267.971 -200.907)" fill="#e2f3f5"/><path d="M647.06,292.5a31.338,31.338,0,0,1-1.209-16.437L600,284.16s.661,3.465,1.411,8.657a31.481,31.481,0,0,0,45.641-.32Z" transform="translate(-402.485 -179.872)" opacity="0.1"/><path d="M644.5,219.283a31.488,31.488,0,1,1-62.972.762c0-.254,0-.508,0-.762A31.48,31.48,0,0,1,618.3,188.235h0a31.464,31.464,0,0,1,26.115,28.958Q644.5,218.231,644.5,219.283Z" transform="translate(-392.107 -130.275)" fill="#f7c4a7"/><g transform="translate(189.423 58.674)" opacity="0.1"><path d="M602.046,193.9l.044-.026a31.462,31.462,0,0,0-20.56,29.541v.762a7.009,7.009,0,0,0,2.826-.679c7.675-3.584,12.267-14.545,14.089-22.189C599.1,198.566,599.72,195.482,602.046,193.9Z" transform="translate(-581.53 -192.363)"/><path d="M648.779,192.844a31.225,31.225,0,0,0-7.829-2.414,10.1,10.1,0,0,1,5.621,3.531,14.392,14.392,0,0,1,1.722,3.067,31.573,31.573,0,0,0-26.483.548c1.976,4.333,8.1,6.694,12.2,8.276q6.72,2.594,13.581,4.745l-4.048-3.286,9.143,1.454a15.838,15.838,0,0,0-.64-5.389c1.752,1.411,4.074,1.884,5.976,3.067,3.562,2.247,5.047,6.571,6.988,10.317a6.837,6.837,0,0,0,2.042,2.629A31.5,31.5,0,0,0,648.779,192.844Z" transform="translate(-604.164 -190.43)"/></g><path d="M602.046,192.266l.044-.026a31.462,31.462,0,0,0-20.56,29.541v.762a7.009,7.009,0,0,0,2.826-.679c7.675-3.584,12.267-14.545,14.089-22.189C599.1,196.954,599.72,193.857,602.046,192.266Z" transform="translate(-392.107 -132.773)" fill="#632652"/><path d="M648.779,191.224a31.225,31.225,0,0,0-7.829-2.414,10.1,10.1,0,0,1,5.621,3.531,14.393,14.393,0,0,1,1.722,3.067,31.573,31.573,0,0,0-26.483.548c1.976,4.333,8.1,6.694,12.2,8.276q6.72,2.594,13.581,4.745l-4.048-3.286,9.143,1.454a15.838,15.838,0,0,0-.64-5.389c1.752,1.411,4.074,1.884,5.976,3.067,3.562,2.247,5.047,6.571,6.988,10.317a6.837,6.837,0,0,0,2.042,2.629A31.5,31.5,0,0,0,648.779,191.224Z" transform="translate(-414.741 -130.846)" fill="#632652"/><path d="M573.33,209.386s32.419-40.3,69.924,0l-3.242-9.029s-17.6-25.7-30.1-20.152-24.774,9.494-24.774,9.494Z" transform="translate(-387.499 -125.57)" opacity="0.1"/><path d="M573.33,207.756s32.419-40.3,69.924,0l-3.242-9.029s-17.6-25.7-30.1-20.152-24.774,9.494-24.774,9.494Z" transform="translate(-387.499 -124.654)" fill="#e14b5a"/><path d="M505.127,444.38s-6.944,18.523,2.778,35.192-8.565,23.618-8.565,23.618" transform="translate(-345.924 -274.452)" opacity="0.1"/><path d="M765.235,406.33s12.039,15.281,4.166,28.941-7.408,46.539-7.408,46.539" transform="translate(-493.508 -253.071)" opacity="0.1"/><path d="M324.57,553.3H458.395a11.114,11.114,0,0,1,11.115,11.114H313.46A11.114,11.114,0,0,1,324.57,553.3Z" transform="translate(-176.017 -310.902)" fill="#505050"/><path d="M347.986,378.89h106.6a17.086,17.086,0,0,1,17.086,17.086v61.868H330.9V395.976A17.086,17.086,0,0,1,347.986,378.89Z" transform="translate(-185.817 -212.9)" fill="#505050"/><circle cx="8.337" cy="8.337" r="8.337" transform="translate(207.012 200.603)" fill="#fff"/><path d="M577.56,186.326s31.858-31.841,66.218-.583" transform="translate(-389.876 -121.4)" fill="none" stroke="#000" stroke-miterlimit="10" stroke-width="1" opacity="0.1"/><rect width="3.198" height="18.133" transform="translate(258.751 62.897)" fill="#6a5c99"/><path d="M580.62,170.35h0a11.022,11.022,0,0,1,11.022,11.022v.71A11.022,11.022,0,0,1,580.62,193.1h0Z" transform="translate(-326.136 -95.721)" fill="#ffd037"/><rect width="4.977" height="24.888" rx="2.488" transform="translate(252.351 73.565)" fill="#6a5c99"/><rect width="3.198" height="18.133" transform="translate(182.505 81.385) rotate(180)" fill="#6a5c99"/><path d="M0,0H0A11.022,11.022,0,0,1,11.022,11.022v.71A11.022,11.022,0,0,1,0,22.755H0Z" transform="translate(186.773 97.739) rotate(180)" fill="#ffd037"/><rect width="4.977" height="24.888" rx="2.488" transform="translate(188.906 98.803) rotate(180)" fill="#6a5c99"/><path d="M636.367,129.156c-4.333-9.007-13.769-19.9-34.11-20.77v-.026h-.245l-7.207.342v.035c-20.2.929-29.6,11.78-33.917,20.757a46.7,46.7,0,0,0-4.477,19.451l2.488-.061,2.488-.057a42.343,42.343,0,0,1,4.044-17.313c5.485-11.268,15.579-17.257,30-17.813h0l6.374-.355h0c14.426.552,24.525,6.549,30.005,17.813a42.343,42.343,0,0,1,4.052,17.322l2.488.057,2.488.061a46.7,46.7,0,0,0-4.469-19.443Z" transform="translate(-377.992 -85.64)" fill="#ffd037"/><rect width="339.396" height="91.124" transform="translate(32.66 253.657)" fill="#d6d6e3"/><rect width="339.396" height="11.829" transform="translate(32.66 259.79)" opacity="0.1"/><rect width="384.923" height="11.829" transform="translate(9.892 252.342)" fill="#d6d6e3"/></g></svg>